<svg xmlns="http://www.w3.org/2000/svg" width="704.36" height="635" viewBox="0 0 704.36 635">
  <g id="undraw_completed_tasks_vs6q" transform="translate(-0.002 0)">
    <path id="Path_1" data-name="Path 1" d="M685.451,501.5h-258a33.037,33.037,0,0,1-33-33v-303a33.037,33.037,0,0,1,33-33H667.478l50.973,40.629V468.5A33.037,33.037,0,0,1,685.451,501.5Z" transform="translate(-247.819 -132.5)" fill="#397197"/>
    <path id="Path_2" data-name="Path 2" d="M427.451,142a23.527,23.527,0,0,0-23.5,23.5v303a23.527,23.527,0,0,0,23.5,23.5h258a23.527,23.527,0,0,0,23.5-23.5V177.706L664.155,142Z" transform="translate(-247.819 -132.5)" fill="#083757"/>
    <path id="Path_3" data-name="Path 3" d="M635.27,230.1H517.806a5.5,5.5,0,1,1,0-10.991H635.27a5.5,5.5,0,1,1,0,10.991Z" transform="translate(-247.819 -132.5)" fill="#047ed1"/>
    <path id="Path_4" data-name="Path 4" d="M657.939,248.651H517.806a5.5,5.5,0,1,1,0-10.991H657.939a5.5,5.5,0,1,1,0,10.991Z" transform="translate(-247.819 -132.5)" fill="#0e4e7a"/>
    <path id="Path_5" data-name="Path 5" d="M635.27,313.222H517.806a5.5,5.5,0,1,1,0-10.991H635.27a5.5,5.5,0,1,1,0,10.991Z" transform="translate(-247.819 -132.5)" fill="#047ed1"/>
    <path id="Path_6" data-name="Path 6" d="M657.939,331.769H517.806a5.5,5.5,0,1,1,0-10.991H657.939a5.5,5.5,0,1,1,0,10.991Z" transform="translate(-247.819 -132.5)" fill="#0e4e7a"/>
    <path id="Path_7" data-name="Path 7" d="M635.27,396.34H517.806a5.5,5.5,0,1,1,0-10.991H635.27a5.5,5.5,0,1,1,0,10.991Z" transform="translate(-247.819 -132.5)" fill="#047ed1"/>
    <path id="Path_8" data-name="Path 8" d="M657.939,414.887H517.806a5.5,5.5,0,1,1,0-10.991H657.939a5.5,5.5,0,1,1,0,10.991Z" transform="translate(-247.819 -132.5)" fill="#0e4e7a"/>
    <circle id="Ellipse_44" data-name="Ellipse 44" cx="19.423" cy="19.423" r="19.423" transform="translate(201.65 81.959)" fill="#237bfe"/>
    <path id="Path_395" data-name="Path 395" d="M466.967,241.292a2.014,2.014,0,0,1-1.212-.4l-.022-.016-4.565-3.492a2.029,2.029,0,0,1,2.468-3.22l2.957,2.267,6.987-9.115a2.028,2.028,0,0,1,2.843-.375h0l-.043.06.045-.06a2.03,2.03,0,0,1,.375,2.843L468.582,240.5a2.029,2.029,0,0,1-1.613.791Z" transform="translate(-247.819 -132.5)" fill="#fff"/>
    <circle id="Ellipse_44-2" data-name="Ellipse 44" cx="19.423" cy="19.423" r="19.423" transform="translate(203.65 165.077)" fill="#14527d"/>
    <circle id="Ellipse_44-3" data-name="Ellipse 44" cx="19.423" cy="19.423" r="19.423" transform="translate(201.65 248.195)" fill="#14527d"/>
    <path id="Path_9" data-name="Path 9" d="M717.459,174.436H677.53a10.991,10.991,0,0,1-10.991-10.991V133.954a.687.687,0,0,1,1.113-.538l50.233,39.795a.687.687,0,0,1-.426,1.225Z" transform="translate(-247.819 -132.5)" fill="#468cbc"/>
    <path id="Path_10" data-name="Path 10" d="M447.167,558.272,294.521,590.447a17.019,17.019,0,0,1-20.141-13.128L248.186,453.05a17.019,17.019,0,0,1,13.128-20.141L413.96,400.734A17.019,17.019,0,0,1,434.1,413.862L460.3,538.131A17.019,17.019,0,0,1,447.167,558.272Z" transform="translate(-247.819 -132.5)" fill="#083757"/>
    <path id="Path_11" data-name="Path 11" d="M447.167,558.272,294.521,590.447a17.019,17.019,0,0,1-20.141-13.128L248.186,453.05a17.019,17.019,0,0,1,13.128-20.141L413.96,400.734A17.019,17.019,0,0,1,434.1,413.862L460.3,538.131A17.019,17.019,0,0,1,447.167,558.272ZM261.727,434.866a15.017,15.017,0,0,0-11.584,17.771l26.194,124.269a15.017,15.017,0,0,0,17.771,11.584l152.646-32.175a15.017,15.017,0,0,0,11.584-17.771L432.144,414.275a15.017,15.017,0,0,0-17.771-11.584Z" transform="translate(-247.819 -132.5)" fill="#047ed1"/>
    <path id="Path_411" data-name="Path 411" d="M404.476,441.709l-77.038,16.238a2.731,2.731,0,0,1-3.229-1.863,2.631,2.631,0,0,1,2-3.254l78.42-16.53c3.062,1.726,2.094,4.935-.152,5.409Z" transform="translate(-247.819 -132.5)" fill="#047ed1"/>
    <path id="Path_412" data-name="Path 412" d="M407.324,455.222,330.286,471.46a2.731,2.731,0,0,1-3.229-1.863,2.631,2.631,0,0,1,2-3.254l78.42-16.53c3.062,1.726,2.094,4.935-.152,5.409Z" transform="translate(-247.819 -132.5)" fill="#047ed1"/>
    <path id="Path_413" data-name="Path 413" d="M315.254,482.665l-23.511,4.956a2.962,2.962,0,0,1-3.506-2.285l-5.848-27.746a2.962,2.962,0,0,1,2.285-3.506l23.511-4.956a2.963,2.963,0,0,1,3.506,2.285l5.848,27.745a2.962,2.962,0,0,1-2.285,3.506Z" transform="translate(-247.819 -132.5)" fill="#7bacce"/>
    <path id="Path_414" data-name="Path 414" d="M412.932,482.937,295.358,507.72a2.731,2.731,0,0,1-3.229-1.863,2.631,2.631,0,0,1,2-3.254l118.958-25.074c3.062,1.726,2.094,4.935-.152,5.409Z" transform="translate(-247.819 -132.5)" fill="#0e4e7a"/>
    <path id="Path_415" data-name="Path 415" d="M415.781,496.454,298.207,521.237a2.731,2.731,0,0,1-3.229-1.863,2.631,2.631,0,0,1,2-3.254l118.958-25.074c3.062,1.726,2.094,4.935-.152,5.409Z" transform="translate(-247.819 -132.5)" fill="#0e4e7a"/>
    <path id="Path_416" data-name="Path 416" d="M418.629,509.962,301.054,534.745a2.731,2.731,0,0,1-3.229-1.863,2.631,2.631,0,0,1,2-3.254l118.958-25.074c3.062,1.726,2.094,4.935-.152,5.409Z" transform="translate(-247.819 -132.5)" fill="#0e4e7a"/>
    <path id="Path_417" data-name="Path 417" d="M421.478,523.478,303.9,548.261a2.731,2.731,0,0,1-3.229-1.863,2.631,2.631,0,0,1,2-3.254L421.63,518.07c3.062,1.726,2.094,4.935-.152,5.409Z" transform="translate(-247.819 -132.5)" fill="#0e4e7a"/>
    <path id="Path_418" data-name="Path 418" d="M424.325,536.988,306.75,561.77a2.731,2.731,0,0,1-3.229-1.863,2.631,2.631,0,0,1,2-3.254l118.958-25.074c3.062,1.726,2.094,4.935-.152,5.409Z" transform="translate(-247.819 -132.5)" fill="#0e4e7a"/>
    <path id="Path_12" data-name="Path 12" d="M445.08,475.121a10.527,10.527,0,0,0-.683,1.51l-48.133,11.944-8.373-8.663-14.725,10.928L386.5,507.617a8,8,0,0,0,9.289,2.428L448.016,488.7a10.5,10.5,0,1,0-2.936-13.582Z" transform="translate(-247.819 -132.5)" fill="#a0616a"/>
    <path id="Path_13" data-name="Path 13" d="M280.783,581.413a10.743,10.743,0,0,0,6.378-15.188l33.124-92.067-23-4.077-25.327,91.781a10.8,10.8,0,0,0,8.828,19.551Z" transform="translate(-247.819 -132.5)" fill="#a0616a"/>
    <path id="Path_14" data-name="Path 14" d="M316.079,490.5l-22.712-8.717a4.817,4.817,0,0,1-2.47-6.863L302.812,453.8a13.377,13.377,0,1,1,24.95,9.66l-5.256,23.6a4.817,4.817,0,0,1-6.427,3.448Z" transform="translate(-247.819 -132.5)" fill="#237bfe"/>
    <path id="Path_15" data-name="Path 15" d="M119.525,621.766h12.26l5.832-47.288H119.523Z" fill="#a0616a"/>
    <path id="Path_16" data-name="Path 16" d="M364.216,750.263h24.145a15.386,15.386,0,0,1,15.387,15.387v.5h-39.53Z" transform="translate(-247.819 -132.5)" fill="#2f2e41"/>
    <path id="Path_17" data-name="Path 17" d="M50.525,621.766h12.26l5.832-47.288H50.523Z" fill="#a0616a"/>
    <path id="Path_18" data-name="Path 18" d="M295.216,750.263h24.145a15.386,15.386,0,0,1,15.387,15.387v.5h-39.53Z" transform="translate(-247.819 -132.5)" fill="#2f2e41"/>
    <path id="Path_19" data-name="Path 19" d="M311.2,735.233H295.682a4.5,4.5,0,0,1-4.495-4.714l7.369-158.332.464-.013,74.919-1.953L388.6,728.644a4.5,4.5,0,0,1-4.121,4.911l-17.426,1.394a4.5,4.5,0,0,1-4.767-3.582L339.995,618.59a1.454,1.454,0,0,0-1.469-1.2h-.006a1.455,1.455,0,0,0-1.466,1.211l-21.443,113a4.509,4.509,0,0,1-4.415,3.631Z" transform="translate(-247.819 -132.5)" fill="#2f2e41"/>
    <circle id="Ellipse_1" data-name="Ellipse 1" cx="24.561" cy="24.561" r="24.561" transform="translate(67.236 249.353)" fill="#a0616a"/>
    <path id="Path_20" data-name="Path 20" d="M331.38,590.742c-11.706,0-23.73-3.077-33.7-12.175a4.552,4.552,0,0,1-1.469-3.85c1.067-9.586,6.242-59.081,3.328-92.143A40.019,40.019,0,0,1,312.5,449.269a39.6,39.6,0,0,1,33.962-9.834h0c.306.055.612.112.918.171,19.664,3.806,33.326,22,31.78,42.331-2.256,29.66-4.278,69.779-1.1,92.468a4.493,4.493,0,0,1-2.415,4.637C368.414,582.692,350.312,590.742,331.38,590.742Z" transform="translate(-247.819 -132.5)" fill="#237bfe"/>
    <path id="Path_21" data-name="Path 21" d="M363.43,492.268a4.812,4.812,0,0,1-2.11-3.411l-2.992-23.99a13.377,13.377,0,1,1,25.754-7.248l9.856,22.161a4.817,4.817,0,0,1-3.11,6.6L367.391,492.9a4.811,4.811,0,0,1-3.961-.632Z" transform="translate(-247.819 -132.5)" fill="#237bfe"/>
    <path id="Path_22" data-name="Path 22" d="M331.042,430.628a17.6,17.6,0,0,1-6.8-1.23c-.951-.367-1.939-.668-2.889-1.035-8.387-3.24-13.911-12.172-14.109-21.16s4.457-17.713,11.369-23.462,15.865-8.7,24.83-9.384c9.657-.735,20.53,1.714,25.926,9.756,1.436,2.141,2.441,4.738,1.59,7.322a4.686,4.686,0,0,1-1.32,2.028c-2.41,2.144-4.812.532-7.269.389-3.377-.2-6.409,2.537-7.5,5.739s-.61,6.727.27,9.992a24.964,24.964,0,0,1,1.258,6.076,6.108,6.108,0,0,1-2.531,5.379c-2.11,1.275-4.881.537-6.992-.736s-3.935-3.044-6.216-3.981-5.344-.729-6.672,1.348a7.38,7.38,0,0,0-.843,2.435c-1.19,5.421-.916,5.1-2.106,10.523Z" transform="translate(-247.819 -132.5)" fill="#2f2e41"/>
    <path id="Path_23" data-name="Path 23" d="M439.487,767.5h-190a1,1,0,1,1,0-2h190a1,1,0,0,1,0,2Z" transform="translate(-247.819 -132.5)" fill="#0e649f"/>
    <path id="Path_24" data-name="Path 24" d="M925.831,561.129,789.773,637.447a17.019,17.019,0,0,1-23.143-6.51L704.5,520.172a17.019,17.019,0,0,1,6.511-23.144l136.058-76.317a17.019,17.019,0,0,1,23.143,6.51l62.13,110.765a17.019,17.019,0,0,1-6.51,23.143Z" transform="translate(-247.819 -132.5)" fill="#083757"/>
    <path id="Path_25" data-name="Path 25" d="M925.831,561.129,789.773,637.447a17.019,17.019,0,0,1-23.143-6.51L704.5,520.172a17.019,17.019,0,0,1,6.511-23.144l136.058-76.317a17.019,17.019,0,0,1,23.143,6.51l62.13,110.765a17.019,17.019,0,0,1-6.51,23.143ZM711.988,498.773a15.017,15.017,0,0,0-5.744,20.421l62.13,110.765a15.017,15.017,0,0,0,20.421,5.744l136.058-76.317a15.017,15.017,0,0,0,5.744-20.421L868.467,428.2a15.017,15.017,0,0,0-20.421-5.744Z" transform="translate(-247.819 -132.5)" fill="#047ed1"/>
    <path id="Path_411-2" data-name="Path 411" d="M850.26,462.648l-68.666,38.517a2.731,2.731,0,0,1-3.638-.813,2.631,2.631,0,0,1,.935-3.7l69.9-39.207c3.438.732,3.473,4.084,1.471,5.207Z" transform="translate(-247.819 -132.5)" fill="#ccc"/>
    <path id="Path_412-2" data-name="Path 412" d="M857.016,474.693,788.35,513.209a2.731,2.731,0,0,1-3.638-.813,2.631,2.631,0,0,1,.935-3.7l69.9-39.207c3.438.732,3.473,4.084,1.471,5.207Z" transform="translate(-247.819 -132.5)" fill="#ccc"/>
    <path id="Path_413-2" data-name="Path 413" d="M777.353,528.393,756.4,540.148a2.962,2.962,0,0,1-4.028-1.133L738.5,514.285a2.962,2.962,0,0,1,1.133-4.028L760.585,498.5a2.963,2.963,0,0,1,4.028,1.133l13.872,24.73a2.962,2.962,0,0,1-1.133,4.028Z" transform="translate(-247.819 -132.5)" fill="#7bacce"/>
    <path id="Path_414-2" data-name="Path 414" d="M870.65,499.466l-104.8,58.783a2.731,2.731,0,0,1-3.639-.813,2.63,2.63,0,0,1,.935-3.7l106.031-59.474c3.438.732,3.473,4.084,1.471,5.207Z" transform="translate(-247.819 -132.5)" fill="#0e4e7a"/>
    <path id="Path_415-2" data-name="Path 415" d="M877.408,511.514,772.61,570.3a2.731,2.731,0,0,1-3.639-.813,2.631,2.631,0,0,1,.935-3.7l106.03-59.474c3.438.732,3.473,4.084,1.471,5.207Z" transform="translate(-247.819 -132.5)" fill="#0e4e7a"/>
    <path id="Path_416-2" data-name="Path 416" d="M884.161,523.554l-104.8,58.783a2.731,2.731,0,0,1-3.638-.813,2.631,2.631,0,0,1,.935-3.7l106.03-59.474c3.438.732,3.473,4.084,1.471,5.207Z" transform="translate(-247.819 -132.5)" fill="#0e4e7a"/>
    <path id="Path_417-2" data-name="Path 417" d="M890.919,535.6l-104.8,58.783a2.731,2.731,0,0,1-3.638-.813,2.631,2.631,0,0,1,.935-3.7l106.031-59.475c3.438.732,3.473,4.084,1.471,5.207Z" transform="translate(-247.819 -132.5)" fill="#0e4e7a"/>
    <path id="Path_418-2" data-name="Path 418" d="M897.673,547.643l-104.8,58.783a2.731,2.731,0,0,1-3.638-.813,2.631,2.631,0,0,1,.935-3.7L896.2,542.436c3.438.732,3.473,4.084,1.471,5.207Z" transform="translate(-247.819 -132.5)" fill="#0e4e7a"/>
    <path id="Path_26" data-name="Path 26" d="M879.39,592.766a9.454,9.454,0,0,0-6.28-13.065l-2.85-33.474-13.706,10.813,4.808,30.13a9.505,9.505,0,0,0,18.029,5.6Z" transform="translate(-247.819 -132.5)" fill="#ffb8b8"/>
    <path id="Path_27" data-name="Path 27" d="M870.519,576.2l-11.383,1.358a4.231,4.231,0,0,1-4.727-4.018l-1.66-38.4-21.577-58.946a12.148,12.148,0,0,1,.641-11.568,15.87,15.87,0,0,1,1.808-2.333,12.109,12.109,0,0,1,10.562-3.75,12.626,12.626,0,0,1,9.483,6.59l14.072,29.487a83.764,83.764,0,0,1,8.094,39.573l-1.587,37.988a4.228,4.228,0,0,1-3.67,4.015Z" transform="translate(-247.819 -132.5)" fill="#237bfe"/>
    <path id="Path_28" data-name="Path 28" d="M663.126,609.664,652.572,614.3l-22.89-38.5,15.576-6.837Z" fill="#ffb8b8"/>
    <path id="Path_29" data-name="Path 29" d="M918.127,751.213,884.1,766.15l-.189-.43a14.465,14.465,0,0,1,7.431-19.06h0l20.784-9.123Z" transform="translate(-247.819 -132.5)" fill="#2f2e41"/>
    <path id="Path_30" data-name="Path 30" d="M521.437,622.477H509.911l-5.483-44.457h17.011Z" fill="#ffb8b8"/>
    <path id="Path_31" data-name="Path 31" d="M772.2,766.15H735.031v-.47A14.465,14.465,0,0,1,749.5,751.213h22.7Z" transform="translate(-247.819 -132.5)" fill="#2f2e41"/>
    <path id="Path_32" data-name="Path 32" d="M881.471,739.779,817.265,596.5a1.41,1.41,0,0,0-2.656.188L775.488,735.078a4.206,4.206,0,0,1-4.5,3.1l-21.365-2.136a4.255,4.255,0,0,1-3.8-4.552c6.8-84.524,17.509-164.3,49.6-216.52l.171-.278,48.544,9.519,64.808,206.374a4.249,4.249,0,0,1-2.751,5.264l-19.543,6.282a4.215,4.215,0,0,1-5.179-2.352Z" transform="translate(-247.819 -132.5)" fill="#2f2e41"/>
    <circle id="Ellipse_2" data-name="Ellipse 2" cx="23.091" cy="23.091" r="23.091" transform="translate(548.146 262.892)" fill="#ffb8b8"/>
    <path id="Path_33" data-name="Path 33" d="M792.439,518.968l-.294-.061-.069-.292c-3.111-13.135-3.185-27.47-.221-42.605a33.468,33.468,0,0,1,33.508-27.075h0a33.523,33.523,0,0,1,32.818,32.231c.99,26.032-9.648,48.6-9.756,48.825l-.158.331Z" transform="translate(-247.819 -132.5)" fill="#237bfe"/>
    <path id="Path_34" data-name="Path 34" d="M730.539,562.9a9.454,9.454,0,0,0,7.582-12.356l26.6-20.526L748.2,524.35,725.48,544.71a9.5,9.5,0,0,0,5.06,18.187Z" transform="translate(-247.819 -132.5)" fill="#ffb8b8"/>
    <path id="Path_35" data-name="Path 35" d="M745.066,547.417a4.215,4.215,0,0,1-5.4-.953l-7.306-8.834a4.23,4.23,0,0,1,.818-6.15l31.383-22.194,37.865-50.065A12.148,12.148,0,0,1,812.5,453.5a15.846,15.846,0,0,1,2.939.256h0a12.105,12.105,0,0,1,8.873,6.848,12.625,12.625,0,0,1-.4,11.54l-28.038,45.407-.061.1Z" transform="translate(-247.819 -132.5)" fill="#237bfe"/>
    <path id="Path_36" data-name="Path 36" d="M823.185,417.051c-1.7-2.8-5.457-3.59-8.718-3.271s-6.431,1.465-9.708,1.44c-9.1-.07-16.119-11.158-12.294-19.412,3.137-6.769,10.97-9.742,18.057-12.074,14.858-4.891,31.925-9.591,45.408-1.66a28.214,28.214,0,0,1,13.58,25.14c-.3,6.242-2.694,12.653-.672,18.566,2.332,6.822,9.727,10.482,16.716,12.252,12.25,3.1,25.167,2.6,37.494,5.387s24.959,10.175,28.282,22.368c2.183,8.009-.095,16.63-3.867,24.025a62.223,62.223,0,0,1-86.805,25.461c-14.9-8.7-25.662-23.409-32.076-39.43a132.028,132.028,0,0,1-7.632-29c-1.437-9.291-.218-18.68,2.384-27.714a2.547,2.547,0,0,0-.15-2.079Z" transform="translate(-247.819 -132.5)" fill="#2f2e41"/>
    <path id="Path_37" data-name="Path 37" d="M906.487,767.5h-190a1,1,0,0,1,0-2h190a1,1,0,0,1,0,2Z" transform="translate(-247.819 -132.5)" fill="#0e649f"/>
  </g>
</svg>
