<svg
  xmlns="http://www.w3.org/2000/svg"
  width="1440"
  height="358.286"
  viewBox="0 0 1440 358.286"
>
  <g id="Group_1" data-name="Group 1" transform="translate(486 646)">
    <path
      id="Path_40"
      data-name="Path 40"
      d="M0,256l48-5.3C96,245,192,235,288,197.3,384,160,480,96,576,85.3c96-10.3,192,31.7,288,32,96-.3,192-42.3,288-48C1248,64,1344,96,1392,112l48,16V320H0Z"
      transform="translate(-486 -607.714)"
      fill="#062E4D"
    />
    <path
      id="Path_39"
      data-name="Path 39"
      d="M0,288l48-16c48-16,144-48,240-69.3C384,181,480,171,576,192s192,75,288,58.7C960,235,1056,149,1152,101.3c96-48.3,192-58.3,240-64l48-5.3V320H0Z"
      transform="translate(-486 -678)"
      fill="#0361BF"
    />
    <path
      id="Path_38"
      data-name="Path 38"
      d="M0,160l48-10.7C96,139,192,117,288,128s192,53,288,69.3c96,15.7,192,5.7,288,16,96,10.7,192,42.7,288,16C1248,203,1344,117,1392,74.7L1440,32V320H0Z"
      transform="translate(-486 -608)"
      fill="#237bfe"
    />
  </g>
</svg>
